<svg width="328" height="57" viewBox="0 0 328 57" fill="none" xmlns="http://www.w3.org/2000/svg">
<path d="M54.119 0.751999V57H48.115V15.209L29.866 57H25.284L6.877 15.525L6.956 57H0.952001V0.751999H6.324L27.654 49.258L48.747 0.751999H54.119ZM104.808 42.543H75.42L69.179 57H62.464L87.191 0.751999H92.879L117.606 57H110.97L104.808 42.543ZM102.517 37.171L90.114 8.257L77.711 37.171H102.517ZM172.62 0.751999V57H166.142V31.167H132.409V57H126.01V0.751999H132.409V25.716H166.142V0.751999H172.62ZM200.082 6.282H180.49V0.751999H226.231V6.282H206.639V57H200.082V6.282ZM264.351 42.543H234.963L228.722 57H222.007L246.734 0.751999H252.422L277.149 57H270.513L264.351 42.543ZM262.06 37.171L249.657 8.257L237.254 37.171H262.06ZM317.469 28.086C320.681 28.9813 323.183 30.614 324.974 32.984C326.764 35.3013 327.66 38.198 327.66 41.674C327.66 46.572 326.027 50.364 322.762 53.05C319.496 55.6833 314.888 57 308.937 57H285.553V0.751999H308.147C313.887 0.751999 318.338 2.04233 321.498 4.623C324.71 7.151 326.317 10.7587 326.317 15.446C326.317 18.448 325.527 21.055 323.947 23.267C322.419 25.4263 320.26 27.0327 317.469 28.086ZM291.952 25.716H307.12C311.333 25.716 314.519 24.8733 316.679 23.188C318.838 21.5027 319.918 19.0273 319.918 15.762C319.918 9.33666 315.652 6.124 307.12 6.124H291.952V25.716ZM308.384 51.628C312.808 51.628 316.047 50.8117 318.101 49.179C320.207 47.4937 321.261 44.9393 321.261 41.516C321.261 34.6167 316.968 31.167 308.384 31.167H291.952V51.628H308.384Z" fill="black"/>
</svg>
